<svg width="40" height="40" viewBox="0 0 40 40" fill="none" xmlns="http://www.w3.org/2000/svg">
<rect width="40" height="40" fill="#E2FF3C"/>
<path d="M9.92632 11C9.68064 11 9.44503 11.1054 9.27131 11.2929C9.09759 11.4805 9 11.7348 9 12C9 12.2653 9.09759 12.5196 9.27131 12.7071C9.44503 12.8947 9.68064 13 9.92632 13H11.9827L14.4134 23.5C14.62 24.39 15.3582 25 16.2077 25H26.8325C27.669 25 28.3795 24.4 28.599 23.53L31 14L29 14L28.5971 16L26.8316 23H16.2067L13.777 12.5C13.6766 12.0693 13.4453 11.6873 13.12 11.4154C12.7946 11.1434 12.3942 10.9971 11.9827 11H9.92632ZM25.6737 25C24.1499 25 22.8947 26.355 22.8947 28C22.8947 29.645 24.1499 31 25.6737 31C27.1975 31 28.4526 29.645 28.4526 28C28.4526 26.355 27.1975 25 25.6737 25ZM17.3368 25C15.8131 25 14.5579 26.355 14.5579 28C14.5579 29.645 15.8131 31 17.3368 31C18.8606 31 20.1158 29.645 20.1158 28C20.1158 26.355 18.8606 25 17.3368 25ZM17.3368 27C17.8593 27 18.2632 27.436 18.2632 28C18.2632 28.564 17.8593 29 17.3368 29C16.8144 29 16.4105 28.564 16.4105 28C16.4105 27.436 16.8144 27 17.3368 27ZM25.6737 27C26.1961 27 26.6 27.436 26.6 28C26.6 28.564 26.1961 29 25.6737 29C25.1512 29 24.7474 28.564 24.7474 28C24.7474 27.436 25.1512 27 25.6737 27Z" fill="black"/>
<line x1="21.7143" y1="7" x2="21.7143" y2="16" stroke="black" stroke-width="2" stroke-linecap="round"/>
<line x1="26" y1="11.7148" x2="17" y2="11.7148" stroke="black" stroke-width="2" stroke-linecap="round"/>
</svg>
